<svg width="24" height="24" viewBox="0 0 24 24" fill="none" xmlns="http://www.w3.org/2000/svg">
<g id="Flowy Icons/ 01">
<g id="Icon">
<path fill-rule="evenodd" clip-rule="evenodd" d="M9.79264 16.1779L5.55 11.9353L6.87583 10.6095L11.1185 14.8521L9.79264 16.1779Z" fill="#35C18F"/>
<path fill-rule="evenodd" clip-rule="evenodd" d="M18.2779 7.69265L9.79264 16.1779L8.46682 14.8521L16.9521 6.36683L18.2779 7.69265Z" fill="#35C18F"/>
<path fill-rule="evenodd" clip-rule="evenodd" d="M22.125 12C22.125 6.94516 17.6991 2.625 12 2.625C6.30088 2.625 1.875 6.94516 1.875 12C1.875 17.0548 6.30088 21.375 12 21.375C17.6991 21.375 22.125 17.0548 22.125 12ZM24 12C24 5.79783 18.6192 0.75 12 0.75C5.3808 0.75 0 5.79783 0 12C0 18.2022 5.3808 23.25 12 23.25C18.6192 23.25 24 18.2022 24 12Z" fill="#35C18F"/>
</g>
</g>
</svg>
